<?xml version="1.0" encoding="utf-8"?>
<!-- Generator: Adobe Illustrator 16.0.0, SVG Export Plug-In . SVG Version: 6.00 Build 0)  -->
<!DOCTYPE svg PUBLIC "-//W3C//DTD SVG 1.1//EN" "http://www.w3.org/Graphics/SVG/1.1/DTD/svg11.dtd">
<svg version="1.1" id="Layer_1" xmlns="http://www.w3.org/2000/svg" xmlns:xlink="http://www.w3.org/1999/xlink" x="0px" y="0px"
	 width="368px" height="84px" viewBox="0 0 368 84" enable-background="new 0 0 368 84" xml:space="preserve">
<path fill="#231F20" d="M28.509,37.512c-1.438-1.689-3.195-3.01-5.276-3.955c-2.079-0.938-4.461-1.407-7.139-1.407
	c-2.15,0-4.051,0.282-5.704,0.844c-1.646,0.562-2.882,1.108-3.694,1.629V14.916l-6.674,1.13v52.616
	c1.531,0.426,3.494,0.845,5.886,1.271c2.389,0.418,5.142,0.641,8.251,0.641c2.868,0,5.449-0.452,7.75-1.348
	c2.292-0.896,4.254-2.16,5.881-3.817c1.627-1.642,2.88-3.654,3.764-6.035c0.886-2.377,1.329-5.049,1.329-8.015
	c0-2.821-0.37-5.414-1.113-7.767C31.029,41.235,29.94,39.211,28.509,37.512z M22.695,61.284c-2.149,2.325-5.02,3.493-8.607,3.493
	c-1.817,0-3.337-0.082-4.558-0.246c-1.217-0.166-2.162-0.34-2.833-0.535v-23.23c0.812-0.655,1.984-1.299,3.518-1.909
	c1.529-0.609,3.2-0.919,5.021-0.919c1.91,0,3.551,0.344,4.913,1.023c1.366,0.69,2.479,1.627,3.337,2.826
	c0.86,1.201,1.483,2.628,1.864,4.277c0.383,1.643,0.577,3.412,0.577,5.293C25.925,55.639,24.849,58.951,22.695,61.284z
	 M57.715,32.605c-0.719-0.116-1.445-0.207-2.188-0.276c-0.742-0.075-1.398-0.109-1.973-0.109c-2.917,0-5.548,0.248-7.893,0.741
	c-2.345,0.495-4.303,1.023-5.884,1.587v35.175h6.675V38.856c0.383-0.091,1.181-0.269,2.4-0.527c1.221-0.26,2.45-0.392,3.696-0.392
	c1.914,0,3.479,0.131,4.696,0.392c1.222,0.258,2.095,0.482,2.62,0.666l1.151-5.713c-0.291-0.098-0.729-0.208-1.33-0.322
	C59.092,32.845,58.436,32.726,57.715,32.605z M89.188,35.996c-1.125-1.243-2.608-2.208-4.45-2.897
	c-1.842-0.679-4.103-1.023-6.779-1.023c-2.343,0-4.52,0.178-6.53,0.529c-2.008,0.355-3.44,0.721-4.304,1.096l0.789,5.445
	c0.814-0.335,2.047-0.651,3.695-0.958c1.649-0.309,3.572-0.458,5.776-0.458c1.721,0,3.121,0.242,4.197,0.737
	c1.078,0.493,1.925,1.159,2.544,1.975c0.623,0.83,1.056,1.772,1.294,2.828c0.24,1.062,0.359,2.133,0.359,3.215v1.834
	c-0.193-0.047-0.528-0.116-1.004-0.209c-0.479-0.09-1.042-0.202-1.689-0.322c-0.644-0.112-1.328-0.205-2.041-0.271
	c-0.717-0.076-1.416-0.109-2.082-0.109c-2.106,0-4.114,0.211-6.027,0.635c-1.914,0.427-3.586,1.083-5.022,1.979
	c-1.432,0.896-2.571,2.069-3.405,3.529c-0.837,1.461-1.255,3.201-1.255,5.229c0,2.115,0.357,3.932,1.074,5.438
	s1.721,2.714,3.015,3.636c1.291,0.918,2.82,1.59,4.589,2.008c1.771,0.429,3.709,0.642,5.812,0.642c1.48,0,2.977-0.06,4.483-0.181
	c1.507-0.114,2.904-0.241,4.197-0.385c1.292-0.144,2.451-0.291,3.479-0.461c1.03-0.166,1.828-0.291,2.403-0.385V46.132
	c0-2.067-0.238-3.965-0.717-5.69C91.11,38.731,90.31,37.248,89.188,35.996z M85.78,64.491c-0.814,0.194-1.829,0.319-3.051,0.389
	s-2.62,0.106-4.198,0.106c-2.631,0-4.709-0.455-6.241-1.377c-1.531-0.914-2.294-2.551-2.294-4.906c0-1.271,0.311-2.293,0.932-3.075
	c0.621-0.771,1.399-1.385,2.332-1.835c0.936-0.441,1.961-0.738,3.087-0.877c1.122-0.143,2.187-0.219,3.193-0.219
	c1.53,0,2.831,0.088,3.907,0.253c1.078,0.161,1.854,0.36,2.333,0.598V64.491z M127.301,36.915c-1.17-1.483-2.74-2.631-4.696-3.459
	c-1.961-0.821-4.426-1.236-7.393-1.236c-3.298,0-6.218,0.213-8.75,0.637c-2.537,0.426-4.568,0.823-6.101,1.196v35.67h6.675V38.718
	c0.236-0.045,0.632-0.118,1.184-0.218c0.547-0.091,1.168-0.171,1.863-0.242c0.692-0.069,1.422-0.131,2.188-0.176
	c0.767-0.047,1.507-0.075,2.225-0.075c1.771,0,3.254,0.229,4.447,0.677c1.197,0.448,2.154,1.161,2.87,2.153
	c0.718,0.984,1.229,2.284,1.544,3.881c0.312,1.599,0.464,3.531,0.464,5.796v19.209h6.673V49.098c0-2.494-0.238-4.781-0.716-6.849
	C129.298,40.18,128.473,38.396,127.301,36.915z M165.138,34.624c-0.815-0.521-2.049-1.066-3.698-1.629
	c-1.648-0.562-3.552-0.844-5.702-0.844c-2.681,0-5.059,0.469-7.139,1.407c-2.082,0.944-3.838,2.266-5.272,3.955
	c-1.437,1.7-2.523,3.724-3.268,6.081c-0.741,2.352-1.113,4.944-1.113,7.766c0,2.967,0.443,5.639,1.329,8.016
	c0.887,2.381,2.14,4.395,3.767,6.035c1.627,1.656,3.588,2.923,5.885,3.818c2.294,0.895,4.879,1.347,7.75,1.347
	c3.106,0,5.854-0.224,8.248-0.642c2.391-0.426,4.352-0.845,5.883-1.271V14.916l-6.67,1.13L165.138,34.624L165.138,34.624z
	 M165.138,63.996c-0.673,0.195-1.614,0.369-2.836,0.535c-1.22,0.164-2.738,0.246-4.555,0.246c-3.588,0-6.458-1.168-8.61-3.493
	c-2.152-2.333-3.228-5.646-3.228-9.927c0-1.881,0.193-3.65,0.574-5.293c0.384-1.649,1.004-3.076,1.865-4.277
	c0.862-1.199,1.976-2.136,3.337-2.826c1.362-0.679,3-1.023,4.912-1.023c1.819,0,3.493,0.31,5.021,0.919
	c1.534,0.61,2.705,1.254,3.521,1.909L165.138,63.996L165.138,63.996z M201.402,47.973c-1.341,4.844-2.919,9.741-4.736,14.686
	c-1.146-2.396-2.246-4.895-3.298-7.491c-1.055-2.584-2.036-5.172-2.943-7.762c-0.907-2.595-1.733-5.11-2.477-7.561
	c-0.74-2.446-1.375-4.729-1.899-6.85h-7.177c1.723,6.496,3.886,12.914,6.495,19.244c2.604,6.333,5.417,12.323,8.43,17.977
	c-1.195,2.585-2.536,4.459-4.017,5.615c-1.483,1.153-3.542,1.729-6.175,1.729c-0.812,0-1.634-0.104-2.472-0.322
	c-0.836-0.207-1.521-0.43-2.045-0.666l-1.22,5.3c0.189,0.091,0.512,0.204,0.969,0.351c0.451,0.146,0.954,0.27,1.505,0.385
	c0.551,0.121,1.115,0.219,1.688,0.287c0.573,0.069,1.122,0.104,1.649,0.104c1.96,0,3.722-0.237,5.272-0.701
	c1.551-0.473,2.954-1.209,4.198-2.196s2.377-2.248,3.406-3.775c1.027-1.534,2.021-3.356,2.979-5.479
	c2.439-5.55,4.712-11.518,6.815-17.896c2.106-6.378,4.017-13.036,5.739-19.955h-6.885C204.007,38.127,202.741,43.121,201.402,47.973
	z M268.779,36.455c-1.146-1.505-2.691-2.667-4.628-3.495c-1.938-0.821-4.413-1.235-7.427-1.235c-1.677,0-3.503,0.306-5.489,0.917
	c-1.984,0.619-3.741,1.461-5.271,2.542c-1.103-0.938-2.502-1.752-4.198-2.437c-1.698-0.684-3.908-1.022-6.636-1.022
	c-1.388,0-2.801,0.062-4.231,0.178c-1.438,0.117-2.836,0.28-4.197,0.495c-1.363,0.207-2.655,0.447-3.873,0.701
	c-1.222,0.264-2.287,0.511-3.193,0.75v35.874h10.688V41.048c0.67-0.093,1.366-0.18,2.084-0.248c0.715-0.071,1.407-0.104,2.079-0.104
	c2.152,0,3.673,0.701,4.557,2.115c0.884,1.412,1.327,3.814,1.327,7.207v19.703h10.688V49.456c0-1.37-0.049-2.655-0.146-3.853
	c-0.098-1.201-0.31-2.346-0.645-3.426c0.672-0.426,1.517-0.781,2.548-1.056c1.026-0.286,1.827-0.426,2.401-0.426
	c2.152,0,3.67,0.701,4.558,2.115c0.887,1.412,1.325,3.814,1.325,7.207v19.703h10.69V48.745c0-2.541-0.215-4.847-0.645-6.923
	C270.715,39.754,269.925,37.959,268.779,36.455z M280.216,69.723h10.688V32.569h-10.688V69.723z M330.171,36.455
	c-1.244-1.505-2.933-2.667-5.058-3.495c-2.133-0.821-4.797-1.235-8.003-1.235c-3.156,0-6.168,0.226-9.039,0.673
	c-2.868,0.447-5.212,0.928-7.031,1.45v35.875h10.692V41.048c0.667-0.093,1.437-0.18,2.296-0.248
	c0.858-0.071,1.673-0.104,2.438-0.104c2.485,0,4.188,0.701,5.096,2.115c0.908,1.412,1.362,3.814,1.362,7.207v19.703h10.689V48.745
	c0-2.541-0.265-4.847-0.792-6.923C332.3,39.754,331.412,37.959,330.171,36.455z M366.472,60.466
	c-1.004,0.382-2.117,0.673-3.334,0.888c-1.222,0.205-2.405,0.315-3.554,0.315c-2.393,0-3.981-0.662-4.769-1.979
	c-0.794-1.316-1.186-3.088-1.186-5.291V41.326h12.841v-8.757H353.63V21.627l-10.691,1.694v31.214c0,2.402,0.228,4.593,0.683,6.568
	c0.453,1.978,1.256,3.66,2.403,5.054c1.146,1.383,2.681,2.469,4.591,3.241c1.913,0.779,4.33,1.174,7.245,1.174
	c2.298,0,4.233-0.199,5.812-0.572c1.581-0.371,3.014-0.82,4.304-1.339L366.472,60.466z M301.164,1.002h-3.956
	c-9.387,0-16.992,7.487-16.992,16.73v3.895h3.957c9.385,0,16.991-7.491,16.991-16.732V1.002z"/>
</svg>
