<?xml version="1.0" encoding="utf-8"?>
<!-- Generator: Adobe Illustrator 16.0.0, SVG Export Plug-In . SVG Version: 6.00 Build 0)  -->
<!DOCTYPE svg PUBLIC "-//W3C//DTD SVG 1.1//EN" "http://www.w3.org/Graphics/SVG/1.1/DTD/svg11.dtd">
<svg version="1.1" id="Layer_1" xmlns="http://www.w3.org/2000/svg" xmlns:xlink="http://www.w3.org/1999/xlink" x="0px" y="0px"
	 width="55px" height="55px" viewBox="0 0 55 55" enable-background="new 0 0 55 55" xml:space="preserve">
<path fill="#FFFFFF" d="M38.742,22.434l-9.949,4.481V11.072c0-1.471-2.793-1.386-2.793,0l0.042,18.172
	c0,1.053,1.139,1.814,2.172,1.287l11.71-5.676C41.611,24.096,40.514,21.649,38.742,22.434z"/>
<path fill="#FFFFFF" d="M27.501,0C12.313,0,0,11.861,0,27.048c0,15.188,12.313,27.5,27.501,27.5C42.689,54.548,55,42.236,55,27.048
	C55,11.861,42.689,0,27.501,0z M27.501,52.398c-14.005,0-25.36-11.354-25.36-25.359c0-14.005,11.355-24.888,25.36-24.888
	c14.005,0,25.358,10.883,25.358,24.888C52.859,41.044,41.507,52.398,27.501,52.398z"/>
</svg>
