<?xml version="1.0" encoding="utf-8"?>
<!-- Generator: Adobe Illustrator 16.0.0, SVG Export Plug-In . SVG Version: 6.00 Build 0)  -->
<!DOCTYPE svg PUBLIC "-//W3C//DTD SVG 1.1//EN" "http://www.w3.org/Graphics/SVG/1.1/DTD/svg11.dtd">
<svg version="1.1" id="Layer_1" xmlns="http://www.w3.org/2000/svg" xmlns:xlink="http://www.w3.org/1999/xlink" x="0px" y="0px"
	 width="72px" height="55px" viewBox="0 0 72 55" enable-background="new 0 0 72 55" xml:space="preserve">
<g>
	<g>
		<path fill="#FFFFFF" d="M70.852,0.04H1.15C0.516,0.04,0,0.558,0,1.195v52.678c0,0.639,0.515,1.154,1.149,1.154h69.702
			c0.635,0,1.148-0.517,1.148-1.154V1.195C72,0.558,71.486,0.04,70.852,0.04z M70,53H2V2h68V53z M21,7H7v5h14V7z M12,24h19v-5H12V24
			z M29,36h28v-5H29V36z M51,48h14v-5H51V48z"/>
	</g>
</g>
</svg>
